<svg xmlns="http://www.w3.org/2000/svg" xmlns:xlink="http://www.w3.org/1999/xlink" width="500" zoomAndPan="magnify" viewBox="0 0 375 374.999991" height="500" preserveAspectRatio="xMidYMid meet" version="1.0"><defs><clipPath id="35d161ec91"><path d="M 67.5 3 L 307.5 3 L 307.5 375 L 67.5 375 Z M 67.5 3 " clip-rule="nonzero"/></clipPath></defs><path fill="#472d2d" d="M 266.554688 372.90625 C 259.988281 372.777344 253.292969 372.648438 246.726562 372.519531 C 200.632812 371.75 154.539062 370.847656 108.445312 370.074219 C 86.8125 369.6875 70.71875 352.691406 69.816406 331.449219 C 68.917969 310.847656 88.230469 292.4375 108.445312 292.820312 C 115.011719 292.949219 121.707031 293.078125 128.273438 293.207031 C 130.71875 293.207031 133.292969 293.335938 135.742188 293.335938 C 147.070312 293.59375 156.46875 284.453125 156.597656 273.121094 C 156.984375 229.601562 157.371094 186.082031 157.757812 142.5625 C 154.023438 146.554688 150.160156 150.675781 146.425781 154.667969 C 131.621094 170.375 106.769531 168.445312 91.835938 154.667969 C 76.125 140.246094 78.058594 114.753906 91.835938 100.074219 C 117.972656 72.265625 143.980469 44.324219 169.988281 16.511719 C 180.546875 5.183594 198.445312 2.734375 212.222656 8.53125 C 226.125 14.453125 236.039062 28.488281 235.910156 43.808594 C 235.785156 55.398438 235.65625 66.984375 235.65625 78.574219 C 235.269531 128.917969 234.753906 179.132812 234.238281 229.472656 L 233.851562 271.964844 C 233.722656 284.710938 243.894531 295.269531 256.769531 295.398438 C 259.988281 295.398438 263.335938 295.527344 266.554688 295.527344 C 288.1875 295.910156 304.28125 312.90625 305.183594 334.152344 C 306.082031 354.882812 286.769531 373.292969 266.554688 372.90625 Z M 266.554688 372.90625 " fill-opacity="1" fill-rule="nonzero"/><g clip-path="url(#35d161ec91)"><path fill="#ffffff" d="M 267.199219 374.839844 C 266.941406 374.839844 266.8125 374.839844 266.554688 374.839844 L 246.726562 374.453125 C 200.632812 373.679688 154.539062 372.777344 108.445312 372.007812 C 86.296875 371.492188 68.917969 354.109375 67.886719 331.449219 C 67.5 321.535156 71.492188 311.363281 79.214844 303.507812 C 87.199219 295.269531 97.886719 290.632812 108.574219 290.890625 L 135.867188 291.40625 C 140.890625 291.535156 145.527344 289.601562 149.132812 286.125 C 152.734375 282.648438 154.667969 278.015625 154.667969 272.992188 L 155.828125 147.328125 C 153.121094 150.160156 150.546875 152.992188 147.84375 155.824219 C 131.492188 173.335938 105.355469 169.472656 90.546875 155.953125 C 83.335938 149.386719 79.214844 140.117188 78.832031 129.945312 C 78.445312 118.488281 82.691406 106.898438 90.417969 98.660156 L 168.574219 15.097656 C 179.257812 3.636719 197.542969 0.160156 212.863281 6.597656 C 227.929688 13.035156 237.972656 27.84375 237.84375 43.679688 L 235.785156 271.964844 C 235.65625 283.679688 245.054688 293.335938 256.769531 293.464844 L 266.554688 293.59375 C 288.574219 293.980469 306.082031 311.363281 307.113281 334.023438 C 307.5 343.9375 303.378906 354.238281 295.785156 361.964844 C 287.929688 370.203125 277.5 374.839844 267.199219 374.839844 Z M 107.929688 294.625 C 98.53125 294.625 89.132812 298.746094 82.050781 306.082031 C 75.226562 313.164062 71.492188 322.308594 71.878906 331.191406 C 72.777344 351.792969 88.617188 367.628906 108.574219 368.015625 C 154.667969 368.917969 200.761719 369.6875 246.855469 370.460938 L 266.683594 370.847656 C 276.210938 370.976562 285.867188 366.855469 293.078125 359.386719 C 300.03125 352.308594 303.636719 343.164062 303.25 334.28125 C 302.351562 313.679688 286.511719 297.84375 266.554688 297.457031 L 256.769531 297.328125 C 242.992188 297.070312 231.921875 285.613281 232.050781 271.835938 L 233.980469 43.679688 C 234.109375 29.386719 225.097656 15.867188 211.449219 10.203125 C 197.800781 4.410156 180.933594 7.628906 171.40625 17.671875 L 93.121094 101.234375 C 86.167969 108.703125 82.179688 119.386719 82.5625 129.816406 C 82.949219 139.089844 86.554688 147.328125 92.992188 153.121094 C 106.382812 165.484375 130.074219 168.960938 144.882812 153.25 C 148.746094 149.257812 152.480469 145.140625 156.210938 141.148438 L 159.558594 137.542969 L 158.273438 273.121094 C 158.273438 279.171875 155.824219 284.710938 151.449219 288.960938 C 147.199219 293.207031 141.535156 295.398438 135.484375 295.269531 L 108.1875 294.753906 C 108.316406 294.625 108.058594 294.625 107.929688 294.625 Z M 107.929688 294.625 " fill-opacity="1" fill-rule="nonzero"/></g><path fill="#f2eded" d="M 223.550781 32.351562 C 228.960938 48.1875 229.601562 64.925781 225.996094 81.148438 C 223.292969 93.25 204.753906 88.101562 207.328125 75.996094 C 210.160156 62.992188 209.132812 49.988281 204.882812 37.5 C 200.890625 25.65625 219.558594 20.632812 223.550781 32.351562 Z M 221.492188 105.097656 C 220.589844 104.195312 219.558594 103.421875 218.402344 103.164062 C 217.242188 102.519531 215.953125 102.265625 214.667969 102.394531 C 213.765625 102.519531 212.992188 102.648438 212.09375 102.777344 C 210.417969 103.292969 209.003906 104.066406 207.84375 105.226562 C 207.328125 105.867188 206.8125 106.511719 206.296875 107.15625 C 205.398438 108.703125 205.011719 110.246094 205.011719 112.050781 C 205.011719 112.4375 205.011719 112.820312 205.011719 113.207031 C 205.011719 114.496094 205.269531 115.785156 205.910156 116.941406 C 206.296875 118.101562 206.941406 119.132812 207.84375 120.03125 C 208.746094 120.933594 209.773438 121.707031 210.933594 122.09375 C 212.09375 122.734375 213.378906 122.992188 214.667969 122.863281 C 215.570312 122.734375 216.339844 122.605469 217.242188 122.480469 C 218.917969 121.964844 220.332031 121.191406 221.492188 120.03125 C 222.007812 119.386719 222.519531 118.746094 223.035156 118.101562 C 223.9375 116.554688 224.324219 115.011719 224.324219 113.207031 C 224.324219 112.820312 224.324219 112.4375 224.324219 112.050781 C 224.324219 110.761719 224.066406 109.472656 223.550781 108.316406 C 223.164062 106.898438 222.519531 105.867188 221.492188 105.097656 Z M 278.015625 306.082031 C 273.25 303.894531 267.585938 304.796875 264.753906 309.558594 C 262.308594 313.808594 263.464844 320.503906 268.230469 322.820312 C 270.675781 323.980469 272.222656 325.140625 273.25 326.8125 C 274.667969 329.132812 274.925781 330.289062 274.796875 332.863281 C 274.667969 338.015625 279.300781 342.519531 284.453125 342.519531 C 289.859375 342.519531 293.980469 338.144531 294.109375 332.863281 C 294.367188 321.792969 288.058594 310.71875 278.015625 306.082031 Z M 278.015625 306.082031 " fill-opacity="1" fill-rule="nonzero"/></svg>