<svg xmlns="http://www.w3.org/2000/svg" xmlns:xlink="http://www.w3.org/1999/xlink" width="500" zoomAndPan="magnify" viewBox="0 0 375 374.999991" height="500" preserveAspectRatio="xMidYMid meet" version="1.0"><path fill="#472d2d" d="M 282.75 368.710938 C 274.917969 368.851562 266.949219 369.132812 259.121094 369.273438 C 203.75 370.527344 148.523438 371.785156 93.152344 372.902344 C 74.976562 373.324219 58.480469 361.167969 51.628906 344.960938 C 47.710938 335.601562 46.59375 325.261719 49.390625 315.339844 C 51.488281 307.515625 56.242188 301.507812 61.136719 295.363281 C 64.351562 291.308594 67.425781 287.398438 70.644531 283.347656 C 93.851562 253.867188 151.039062 185.125 171.734375 154.246094 C 190.328125 126.582031 175.507812 114.847656 154.394531 144.328125 C 140.414062 163.886719 135.660156 167.378906 125.3125 170.734375 C 113.566406 174.507812 100.84375 171.710938 90.359375 166.125 C 80.570312 160.953125 72.320312 149.496094 69.523438 139.019531 C 66.027344 126.164062 69.105469 115.683594 74.140625 104.089844 C 94.550781 55.746094 133.28125 2.933594 191.167969 2.234375 C 234.652344 1.675781 267.507812 33.53125 281.910156 72.09375 C 295.332031 108 287.363281 151.871094 264.292969 181.910156 C 241.503906 211.390625 218.710938 240.871094 195.640625 270.210938 C 192.566406 274.125 195.503906 279.714844 200.394531 279.714844 C 227.800781 279.152344 255.34375 278.457031 282.75 277.898438 C 308.195312 277.339844 327.070312 299.132812 328.191406 323.304688 C 329.308594 348.175781 306.519531 368.152344 282.75 368.710938 Z M 282.75 368.710938 " fill-opacity="1" fill-rule="nonzero"/><path fill="#ffffff" d="M 92.316406 375 C 74.417969 375 56.941406 363.125 49.671875 345.800781 C 45.335938 335.601562 44.496094 324.839844 47.292969 314.921875 C 49.671875 306.398438 54.84375 299.972656 59.316406 294.105469 C 62.535156 290.050781 65.609375 286.140625 68.824219 282.089844 C 75.117188 274.125 83.644531 263.507812 93.714844 251.210938 C 120.976562 217.539062 154.816406 175.625 169.914062 153.128906 C 178.863281 139.855469 179.28125 131.472656 176.765625 129.65625 C 174.25 127.839844 166 131.613281 155.933594 145.585938 C 141.671875 165.425781 136.636719 169.195312 125.730469 172.691406 C 114.6875 176.324219 101.683594 174.644531 89.097656 167.941406 C 79.3125 162.769531 70.363281 151.3125 67.148438 139.578125 C 63.652344 126.722656 66.308594 116.105469 71.761719 103.25 C 80.152344 83.691406 94.832031 55.746094 116.921875 33.8125 C 139.292969 11.734375 164.183594 0.417969 191.167969 0.140625 C 212 0 231.996094 7.125 248.773438 20.957031 C 264.152344 33.53125 276.316406 50.996094 283.867188 71.394531 C 297.152344 107.023438 289.878906 152.011719 265.832031 183.167969 C 244.4375 210.972656 222.066406 239.753906 197.179688 271.46875 C 196.203125 272.585938 196.0625 274.125 196.761719 275.523438 C 197.460938 276.917969 198.71875 277.617188 200.257812 277.617188 L 282.609375 275.800781 C 307.636719 275.242188 329.03125 296.480469 330.148438 323.164062 C 330.707031 334.621094 326.375 345.800781 317.984375 354.742188 C 308.894531 364.519531 295.613281 370.527344 282.609375 370.808594 L 93.015625 375 C 92.875 375 92.59375 375 92.316406 375 Z M 175.226562 125.046875 C 176.625 125.046875 178.023438 125.464844 179.144531 126.164062 C 184.875 130.078125 182.5 141.8125 173.410156 155.363281 C 158.171875 178 124.195312 220.054688 96.929688 253.726562 C 87.003906 266.019531 78.332031 276.640625 72.179688 284.601562 C 68.964844 288.65625 65.890625 292.566406 62.671875 296.617188 C 57.5 303.324219 53.304688 308.914062 51.347656 316.039062 C 48.832031 325.121094 49.671875 334.902344 53.585938 344.261719 C 60.296875 360.328125 76.65625 371.367188 93.152344 370.949219 L 282.75 366.757812 C 294.632812 366.476562 306.796875 361.027344 315.1875 351.945312 C 322.738281 343.84375 326.652344 333.785156 326.234375 323.445312 C 325.113281 298.992188 305.679688 279.433594 282.890625 279.992188 L 200.535156 281.808594 C 197.460938 281.808594 194.664062 280.132812 193.265625 277.476562 C 191.867188 274.683594 192.144531 271.46875 194.105469 269.09375 C 218.851562 237.378906 241.363281 208.457031 262.753906 180.792969 C 285.964844 150.613281 292.957031 107.300781 280.09375 72.933594 C 267.648438 39.679688 238.148438 4.332031 192.285156 4.332031 C 192.007812 4.332031 191.585938 4.332031 191.308594 4.332031 C 125.59375 5.03125 88.679688 74.886719 75.816406 104.925781 C 70.644531 116.941406 68.125 126.722656 71.34375 138.460938 C 74.277344 149.078125 82.386719 159.695312 91.195312 164.308594 C 97.90625 167.800781 111.050781 173.109375 124.613281 168.777344 C 134.679688 165.5625 139.015625 162.210938 152.71875 143.210938 C 160.964844 131.613281 169.214844 125.046875 175.226562 125.046875 Z M 175.226562 125.046875 " fill-opacity="1" fill-rule="nonzero"/><path fill="#f2eded" d="M 268.207031 108.699219 C 267.371094 114.289062 260.238281 117.5 255.34375 115.964844 C 249.472656 114.289062 247.234375 108.699219 248.074219 103.109375 C 251.148438 82.292969 237.867188 62.3125 219.269531 54.070312 C 214.097656 51.835938 212.839844 44.152344 215.496094 39.679688 C 218.574219 34.371094 224.585938 33.671875 229.898438 35.90625 C 257.582031 48.34375 272.542969 79.078125 268.207031 108.699219 Z M 254.085938 128.957031 C 240.523438 128.957031 240.523438 149.917969 254.085938 149.917969 C 267.648438 149.917969 267.648438 128.957031 254.085938 128.957031 Z M 288.0625 292.007812 C 275.058594 288.097656 269.605469 308.355469 282.46875 312.265625 C 289.179688 314.222656 292.117188 321.628906 290.019531 327.914062 C 285.824219 340.769531 305.960938 346.21875 310.292969 333.503906 C 316.027344 316.179688 305.121094 297.175781 288.0625 292.007812 Z M 258.699219 290.332031 C 258.421875 290.332031 258.140625 290.332031 258 290.332031 C 244.4375 290.332031 244.4375 311.289062 258 311.289062 C 258.28125 311.289062 258.5625 311.289062 258.699219 311.289062 C 272.125 311.289062 272.125 290.332031 258.699219 290.332031 Z M 258.699219 290.332031 " fill-opacity="1" fill-rule="nonzero"/></svg>