<svg xmlns="http://www.w3.org/2000/svg" xmlns:xlink="http://www.w3.org/1999/xlink" width="500" zoomAndPan="magnify" viewBox="0 0 375 374.999991" height="500" preserveAspectRatio="xMidYMid meet" version="1.0"><path fill="#472d2d" d="M 311.265625 278.371094 C 304.125 319.539062 270.519531 348.128906 232.945312 361.894531 C 197.089844 375 156.472656 371.558594 122.074219 356.335938 C 84.234375 339.523438 61.082031 301.800781 60.289062 260.898438 C 59.757812 236.808594 80.398438 218.9375 103.285156 217.878906 C 126.835938 216.820312 145.886719 238.394531 146.285156 260.898438 C 146.285156 261.558594 146.285156 262.222656 146.417969 262.882812 C 146.417969 263.28125 146.417969 263.679688 146.550781 264.074219 C 146.816406 265.398438 147.210938 266.722656 147.609375 267.914062 C 147.742188 268.3125 147.875 268.839844 148.136719 269.238281 C 148.535156 269.898438 148.929688 270.695312 149.328125 271.355469 C 149.59375 271.753906 149.859375 272.148438 150.253906 272.546875 C 151.046875 273.472656 151.972656 274.265625 152.902344 275.195312 C 153.164062 275.457031 153.5625 275.722656 153.960938 275.988281 C 156.074219 277.3125 158.191406 278.503906 160.308594 279.695312 C 160.574219 279.828125 160.972656 279.960938 161.234375 280.089844 C 165.46875 281.546875 169.835938 282.738281 174.203125 283.535156 C 174.464844 283.535156 174.730469 283.664062 175.128906 283.664062 C 181.082031 284.0625 187.035156 284.0625 192.855469 283.664062 C 193.121094 283.664062 193.386719 283.664062 193.648438 283.535156 C 198.808594 282.472656 203.96875 281.152344 208.996094 279.429688 C 209.261719 279.296875 209.660156 279.164062 209.921875 279.03125 C 212.835938 277.578125 215.613281 275.988281 218.390625 274.136719 C 218.789062 273.871094 219.050781 273.738281 219.316406 273.472656 C 220.640625 272.28125 221.964844 270.957031 223.285156 269.632812 C 223.550781 269.238281 223.816406 268.972656 224.078125 268.574219 C 224.742188 267.515625 225.269531 266.589844 225.933594 265.53125 C 226.195312 265.132812 226.328125 264.738281 226.460938 264.207031 C 226.859375 262.882812 227.253906 261.558594 227.519531 260.367188 C 227.652344 259.972656 227.652344 259.441406 227.652344 259.046875 C 227.785156 256.664062 227.652344 254.28125 227.652344 251.898438 C 227.652344 251.5 227.519531 251.101562 227.519531 250.839844 C 227.253906 249.515625 226.859375 248.191406 226.59375 247 C 226.460938 246.46875 226.195312 246.074219 225.933594 245.542969 C 225.667969 245.144531 225.535156 244.882812 225.269531 244.484375 C 225.007812 244.085938 224.742188 243.691406 224.34375 243.292969 C 223.550781 242.5 222.890625 241.703125 222.09375 241.042969 C 221.832031 240.777344 221.433594 240.511719 221.035156 240.25 C 218.390625 238.527344 215.480469 236.941406 212.703125 235.484375 C 212.4375 235.351562 212.171875 235.21875 211.90625 235.085938 C 203.308594 232.042969 194.445312 229.792969 185.449219 228.335938 C 185.316406 228.335938 185.183594 228.335938 185.050781 228.335938 C 184.257812 228.203125 183.332031 228.203125 182.535156 228.070312 C 182.273438 228.070312 182.007812 228.070312 181.742188 228.070312 C 173.40625 228.46875 165.074219 228.203125 156.871094 227.410156 C 156.738281 227.410156 156.605469 227.410156 156.605469 227.410156 C 152.769531 227.011719 148.929688 226.484375 145.226562 225.953125 C 124.058594 222.511719 111.886719 198.023438 114.402344 178.699219 C 117.3125 156.855469 135.171875 142.5625 156.605469 141.371094 C 166 140.839844 175.65625 140.972656 185.183594 141.898438 C 185.84375 141.898438 186.375 141.898438 187.035156 141.765625 C 190.738281 140.972656 194.3125 140.046875 197.75 138.988281 C 198.148438 138.855469 198.414062 138.722656 198.808594 138.589844 C 200.265625 137.796875 201.71875 137 203.042969 136.207031 C 203.441406 135.941406 203.835938 135.675781 204.101562 135.414062 C 204.632812 135.015625 205.027344 134.488281 205.425781 134.089844 C 205.820312 133.691406 206.085938 133.425781 206.351562 132.898438 C 206.75 132.105469 207.277344 131.441406 207.675781 130.648438 C 207.9375 130.25 208.070312 129.851562 208.203125 129.324219 C 208.863281 127.074219 209.527344 124.824219 209.921875 122.574219 C 210.054688 122.175781 210.054688 121.910156 210.054688 121.515625 C 210.320312 117.542969 210.453125 113.441406 210.1875 109.46875 C 210.1875 109.070312 210.054688 108.675781 210.054688 108.144531 C 209.792969 107.21875 209.660156 106.292969 209.394531 105.367188 C 209.261719 104.835938 208.996094 104.4375 208.863281 103.910156 C 208.601562 103.378906 208.203125 102.851562 207.9375 102.320312 C 207.675781 101.921875 207.410156 101.527344 207.011719 101.128906 C 206.21875 100.335938 205.558594 99.542969 204.761719 98.878906 C 204.5 98.613281 204.101562 98.351562 203.707031 98.085938 C 201.851562 96.894531 199.867188 95.835938 198.015625 94.777344 C 197.621094 94.644531 197.355469 94.511719 196.957031 94.378906 C 193.648438 93.320312 190.34375 92.394531 187.035156 91.730469 C 186.636719 91.730469 186.375 91.597656 185.976562 91.597656 C 182.140625 91.335938 178.171875 91.335938 174.332031 91.597656 C 173.9375 91.597656 173.671875 91.730469 173.273438 91.730469 C 170.230469 92.394531 167.1875 93.1875 164.277344 94.113281 C 163.882812 94.246094 163.617188 94.378906 163.21875 94.511719 C 161.367188 95.4375 159.515625 96.496094 157.796875 97.554688 C 157.398438 97.820312 157.132812 98.085938 156.738281 98.351562 C 155.679688 99.410156 154.621094 100.46875 153.5625 101.527344 C 153.296875 101.792969 153.03125 102.1875 152.769531 102.585938 C 151.972656 103.910156 151.179688 105.367188 150.386719 106.6875 C 150.253906 107.085938 149.988281 107.351562 149.859375 107.746094 C 149.460938 108.9375 149.195312 110 148.800781 111.191406 C 142.449219 134.355469 118.632812 146.398438 95.878906 141.238281 C 72.855469 136.074219 59.363281 110 65.449219 88.289062 C 72.59375 62.34375 88.070312 41.695312 109.636719 26.078125 C 127.628906 12.972656 149.460938 7.546875 171.289062 5.558594 C 206.351562 2.382812 247.234375 16.148438 270.253906 43.417969 C 285.996094 62.082031 294.199219 82.863281 295.789062 107.21875 C 297.242188 129.855469 292.746094 152.753906 282.160156 172.875 C 280.835938 175.386719 281.234375 178.566406 283.351562 180.550781 C 289.835938 186.90625 295.523438 193.917969 300.023438 201.730469 C 313.382812 225.027344 315.765625 252.425781 311.265625 278.371094 Z M 311.265625 278.371094 " fill-opacity="1" fill-rule="nonzero"/><path fill="#ffffff" d="M 301.609375 200.671875 C 297.109375 192.992188 291.421875 185.714844 284.542969 179.09375 C 283.21875 177.769531 282.824219 175.785156 283.617188 174.066406 L 283.75 173.800781 C 294.332031 153.8125 299.097656 130.78125 297.640625 107.085938 C 296.050781 82.199219 287.585938 61.023438 271.707031 42.09375 C 249.351562 15.621094 208.863281 0 171.027344 3.441406 C 145.09375 5.824219 124.585938 12.707031 108.316406 24.355469 C 85.691406 40.902344 70.476562 62.214844 63.464844 87.761719 C 60.289062 99.410156 62.140625 112.382812 68.757812 123.367188 C 74.84375 133.691406 84.234375 140.707031 94.953125 143.089844 C 119.558594 148.648438 143.773438 134.882812 150.253906 111.585938 C 150.519531 110.394531 150.917969 109.335938 151.3125 108.144531 C 151.445312 107.878906 151.445312 107.617188 151.578125 107.351562 C 152.371094 105.894531 153.164062 104.570312 153.960938 103.246094 C 154.089844 102.984375 154.222656 102.851562 154.488281 102.585938 C 155.414062 101.527344 156.472656 100.601562 157.664062 99.542969 C 157.929688 99.410156 158.058594 99.144531 158.324219 99.011719 C 160.046875 97.953125 161.765625 96.894531 163.617188 95.96875 C 163.882812 95.835938 164.144531 95.703125 164.410156 95.570312 C 167.1875 94.644531 170.101562 93.847656 173.144531 93.1875 C 173.40625 93.1875 173.671875 93.054688 173.9375 93.054688 C 177.640625 92.789062 181.476562 92.789062 185.316406 93.054688 C 185.578125 93.054688 185.84375 93.054688 186.109375 93.1875 C 189.417969 93.847656 192.722656 94.777344 195.898438 95.835938 C 196.164062 95.96875 196.429688 96.097656 196.691406 96.097656 C 198.414062 97.027344 200.132812 97.953125 202.25 99.277344 C 202.515625 99.410156 202.777344 99.671875 203.042969 99.804688 C 203.707031 100.46875 204.5 101.261719 205.292969 102.054688 C 205.558594 102.320312 205.691406 102.585938 205.953125 102.851562 C 206.21875 103.378906 206.617188 103.910156 206.878906 104.4375 C 207.011719 104.703125 207.144531 105.101562 207.277344 105.367188 C 207.542969 106.292969 207.804688 107.085938 207.9375 108.011719 C 208.070312 108.410156 208.070312 108.675781 208.070312 108.9375 C 208.203125 112.777344 208.203125 116.75 207.9375 120.71875 C 207.9375 120.984375 207.9375 121.25 207.804688 121.515625 C 207.277344 123.765625 206.75 125.882812 206.085938 128.132812 C 205.953125 128.398438 205.820312 128.792969 205.691406 129.058594 C 205.292969 129.851562 204.894531 130.515625 204.367188 131.308594 C 204.234375 131.574219 203.96875 131.839844 203.703125 132.105469 C 203.308594 132.5 202.777344 133.03125 202.382812 133.425781 C 202.117188 133.691406 201.851562 133.824219 201.589844 133.957031 C 200.265625 134.75 198.808594 135.546875 197.488281 136.339844 C 197.222656 136.472656 196.957031 136.605469 196.691406 136.738281 C 193.386719 137.796875 189.945312 138.722656 186.242188 139.515625 C 185.84375 139.648438 185.445312 139.648438 185.050781 139.515625 C 175.390625 138.589844 165.601562 138.457031 156.207031 138.988281 C 132.789062 140.3125 115.0625 155.929688 112.152344 178.035156 C 109.371094 198.421875 122.734375 223.835938 144.566406 227.410156 C 147.609375 227.9375 150.917969 228.335938 154.355469 228.734375 L 154.355469 228.996094 L 156.207031 228.996094 C 156.339844 228.996094 156.339844 228.996094 156.472656 228.996094 C 164.808594 229.792969 173.144531 230.054688 181.476562 229.660156 C 181.609375 229.660156 181.875 229.660156 182.007812 229.660156 C 182.667969 229.660156 183.332031 229.792969 184.125 229.925781 L 184.652344 229.925781 C 184.785156 229.925781 184.785156 229.925781 184.917969 229.925781 C 194.578125 231.511719 203.042969 233.628906 211.113281 236.542969 C 211.246094 236.542969 211.511719 236.675781 211.644531 236.808594 C 214.421875 238.261719 217.199219 239.71875 219.847656 241.441406 C 220.109375 241.574219 220.375 241.835938 220.507812 241.96875 C 221.300781 242.632812 221.964844 243.425781 222.757812 244.085938 C 223.019531 244.351562 223.152344 244.617188 223.417969 244.882812 L 223.550781 245.144531 C 223.683594 245.410156 223.816406 245.675781 223.949219 245.941406 C 224.078125 246.207031 224.210938 246.601562 224.34375 246.867188 C 224.742188 248.191406 225.007812 249.382812 225.269531 250.574219 C 225.269531 250.839844 225.402344 251.101562 225.402344 251.367188 C 225.535156 253.75 225.535156 256.132812 225.402344 258.382812 C 225.402344 258.648438 225.402344 258.914062 225.269531 259.308594 C 224.875 260.765625 224.609375 261.957031 224.210938 263.148438 C 224.078125 263.414062 223.949219 263.679688 223.816406 264.074219 C 223.285156 265.132812 222.625 266.0625 222.09375 267.121094 C 221.964844 267.382812 221.699219 267.648438 221.566406 267.914062 C 220.375 269.238281 219.050781 270.429688 217.730469 271.621094 C 217.597656 271.753906 217.332031 271.886719 217.066406 272.148438 C 214.421875 273.871094 211.644531 275.457031 208.734375 276.914062 C 208.601562 277.046875 208.335938 277.046875 208.070312 277.179688 C 203.308594 278.902344 198.28125 280.222656 193.121094 281.152344 C 192.988281 281.152344 192.722656 281.152344 192.460938 281.28125 C 186.636719 281.679688 180.816406 281.679688 174.996094 281.28125 C 174.730469 281.28125 174.464844 281.28125 174.332031 281.152344 C 170.101562 280.355469 165.867188 279.164062 161.632812 277.839844 C 161.367188 277.710938 161.101562 277.710938 160.839844 277.578125 C 158.722656 276.519531 156.605469 275.328125 154.621094 274.003906 C 154.355469 273.871094 154.089844 273.605469 153.960938 273.472656 C 153.164062 272.679688 152.238281 271.886719 151.3125 270.957031 C 151.046875 270.695312 150.917969 270.429688 150.652344 270.164062 C 150.253906 269.503906 149.859375 268.839844 149.460938 268.046875 C 149.328125 267.78125 149.195312 267.515625 149.0625 267.121094 C 148.667969 265.796875 148.402344 264.605469 148.003906 263.414062 C 148.003906 263.148438 147.875 262.882812 147.875 262.617188 C 147.875 261.957031 147.875 261.296875 147.742188 260.632812 C 147.476562 248.324219 141.789062 235.878906 132.527344 227.144531 C 124.058594 219.203125 113.472656 215.097656 102.625 215.628906 C 77.355469 216.820312 57.246094 236.941406 57.773438 260.632812 C 58.570312 303.125 83.308594 341.246094 120.75 357.925781 C 141.523438 367.191406 163.617188 371.824219 185.316406 371.824219 C 201.851562 371.824219 218.125 369.042969 233.207031 363.617188 C 276.472656 347.863281 306.238281 315.964844 312.722656 278.636719 C 316.691406 258.382812 317.617188 228.46875 301.609375 200.671875 Z M 309.28125 278.105469 C 303.066406 314.109375 274.222656 344.820312 232.28125 360.042969 C 198.414062 372.351562 158.589844 370.367188 122.867188 354.484375 C 86.882812 338.464844 63.066406 301.667969 62.273438 260.765625 C 61.875 239.191406 80.265625 220.789062 103.417969 219.730469 C 103.949219 219.730469 104.476562 219.730469 105.007812 219.730469 C 114.269531 219.730469 123.265625 223.4375 130.410156 230.1875 C 138.875 238.132812 144.035156 249.648438 144.300781 260.765625 C 144.300781 261.429688 144.300781 262.222656 144.433594 262.882812 C 144.433594 263.414062 144.566406 263.941406 144.699219 264.339844 C 144.960938 265.664062 145.359375 266.988281 145.757812 268.3125 C 145.886719 268.972656 146.152344 269.503906 146.417969 270.03125 C 146.816406 270.824219 147.210938 271.488281 147.742188 272.28125 C 148.136719 272.8125 148.402344 273.339844 148.800781 273.738281 C 149.726562 274.796875 150.652344 275.589844 151.578125 276.386719 C 151.972656 276.78125 152.371094 277.046875 152.902344 277.445312 C 155.015625 278.769531 157.265625 280.09375 159.515625 281.28125 C 159.914062 281.414062 160.308594 281.679688 160.707031 281.8125 C 165.074219 283.269531 169.4375 284.460938 173.9375 285.386719 C 174.332031 285.386719 174.597656 285.519531 174.996094 285.519531 C 180.949219 285.914062 187.035156 285.914062 192.988281 285.519531 C 193.386719 285.519531 193.78125 285.386719 194.046875 285.386719 C 199.472656 284.328125 204.632812 282.871094 209.660156 281.152344 C 210.054688 281.019531 210.453125 280.886719 210.71875 280.621094 C 213.628906 279.164062 216.539062 277.445312 219.316406 275.722656 C 219.847656 275.457031 220.242188 275.0625 220.507812 274.796875 C 221.832031 273.605469 223.152344 272.28125 224.476562 270.824219 C 224.875 270.429688 225.136719 270.03125 225.535156 269.503906 C 226.0625 268.574219 226.726562 267.515625 227.386719 266.324219 C 227.652344 265.796875 227.917969 265.265625 228.050781 264.738281 C 228.445312 263.546875 228.710938 262.222656 229.105469 260.765625 C 229.238281 260.238281 229.371094 259.574219 229.371094 259.046875 C 229.503906 256.664062 229.503906 254.28125 229.371094 251.765625 C 229.371094 251.234375 229.238281 250.839844 229.238281 250.308594 C 228.976562 248.984375 228.578125 247.660156 228.179688 246.207031 C 228.050781 245.542969 227.785156 244.882812 227.386719 244.351562 C 227.253906 244.085938 227.121094 243.824219 226.859375 243.558594 L 226.726562 243.292969 C 226.460938 242.765625 226.0625 242.234375 225.535156 241.703125 C 224.742188 240.910156 223.949219 240.117188 223.152344 239.324219 C 222.757812 238.925781 222.359375 238.660156 221.832031 238.394531 C 219.050781 236.675781 216.273438 235.085938 213.230469 233.5 C 212.835938 233.367188 212.570312 233.101562 212.171875 233.101562 C 203.96875 230.1875 195.238281 227.9375 185.316406 226.351562 C 185.183594 226.351562 184.917969 226.351562 184.785156 226.21875 L 184.390625 226.21875 C 183.726562 226.085938 182.933594 226.085938 182.273438 225.953125 C 181.875 225.953125 181.476562 225.953125 181.214844 225.953125 C 173.011719 226.351562 164.808594 226.085938 156.605469 225.292969 L 156.339844 225.292969 C 152.371094 224.894531 148.535156 224.363281 145.09375 223.835938 C 125.382812 220.527344 113.472656 197.363281 115.988281 178.828125 C 118.632812 158.710938 134.90625 144.414062 156.339844 143.222656 C 165.601562 142.691406 174.996094 142.824219 184.519531 143.753906 C 185.316406 143.882812 186.109375 143.753906 186.902344 143.621094 C 190.871094 142.824219 194.445312 141.898438 197.882812 140.707031 C 198.414062 140.574219 198.808594 140.3125 199.207031 140.179688 C 200.664062 139.382812 202.117188 138.589844 203.574219 137.664062 C 204.101562 137.398438 204.5 137 205.027344 136.605469 C 205.558594 136.074219 205.953125 135.675781 206.484375 135.28125 C 207.011719 134.75 207.410156 134.355469 207.675781 133.691406 C 208.203125 132.898438 208.601562 132.105469 208.996094 131.441406 C 209.261719 130.914062 209.527344 130.382812 209.660156 129.722656 C 210.320312 127.472656 210.980469 125.089844 211.378906 122.839844 C 211.511719 122.441406 211.511719 122.042969 211.511719 121.515625 C 211.777344 117.410156 211.90625 113.308594 211.644531 109.335938 C 211.644531 108.808594 211.511719 108.277344 211.378906 107.617188 C 211.113281 106.6875 210.847656 105.761719 210.585938 104.835938 C 210.453125 104.175781 210.1875 103.511719 209.792969 102.984375 C 209.527344 102.453125 209.128906 101.792969 208.734375 101.261719 C 208.335938 100.734375 208.070312 100.203125 207.542969 99.804688 C 206.75 99.011719 205.953125 98.21875 205.160156 97.421875 C 204.761719 97.027344 204.367188 96.761719 203.835938 96.363281 C 201.589844 95.039062 199.734375 93.847656 197.882812 92.921875 C 197.488281 92.65625 197.089844 92.527344 196.5625 92.394531 C 193.253906 91.335938 189.8125 90.40625 186.375 89.613281 C 185.976562 89.480469 185.578125 89.480469 185.050781 89.480469 C 181.082031 89.214844 176.980469 89.214844 173.144531 89.480469 C 172.746094 89.480469 172.347656 89.613281 171.820312 89.613281 C 168.644531 90.273438 165.601562 91.070312 162.691406 92.128906 C 162.160156 92.261719 161.765625 92.527344 161.367188 92.65625 C 159.382812 93.71875 157.53125 94.777344 155.8125 95.835938 C 155.28125 96.097656 154.886719 96.496094 154.488281 96.894531 C 153.296875 98.085938 152.238281 99.144531 151.179688 100.203125 C 150.785156 100.601562 150.386719 101.128906 150.121094 101.527344 C 149.328125 102.851562 148.535156 104.175781 147.609375 105.761719 C 147.34375 106.160156 147.210938 106.6875 146.945312 107.21875 C 146.550781 108.410156 146.152344 109.601562 145.886719 110.792969 C 140.066406 131.972656 117.839844 144.546875 95.347656 139.382812 C 85.691406 137.132812 77.222656 130.78125 71.667969 121.382812 C 66.242188 111.453125 64.390625 99.277344 67.300781 88.820312 C 74.046875 64.199219 88.734375 43.550781 110.695312 27.664062 C 126.308594 16.414062 146.152344 9.796875 171.421875 7.414062 C 208.070312 4.101562 247.234375 19.0625 268.664062 44.609375 C 284.011719 62.875 292.214844 83.390625 293.671875 107.351562 C 295.125 130.117188 290.496094 152.355469 280.441406 171.683594 L 280.308594 171.945312 C 278.589844 175.257812 279.117188 179.359375 281.894531 181.875 C 288.511719 188.226562 293.9375 195.242188 298.167969 202.65625 C 313.648438 229.394531 312.722656 258.382812 309.28125 278.105469 Z M 309.28125 278.105469 " fill-opacity="1" fill-rule="nonzero"/><path fill="#f2eded" d="M 254.90625 100.335938 C 255.039062 85.378906 248.953125 71.875 237.839844 61.816406 C 228.445312 53.210938 242.46875 39.179688 251.863281 47.785156 C 266.550781 61.285156 274.75 80.480469 274.75 100.335938 C 274.75 113.042969 254.90625 113.042969 254.90625 100.335938 Z M 263.636719 116.21875 C 250.804688 116.21875 250.804688 136.074219 263.636719 136.074219 C 276.339844 136.074219 276.472656 116.21875 263.636719 116.21875 Z M 286.792969 206.363281 C 279.910156 195.640625 262.710938 205.566406 269.59375 216.421875 C 282.027344 235.617188 283.75 260.105469 273.164062 280.488281 C 267.210938 291.738281 284.410156 301.933594 290.363281 290.550781 C 304.125 264.074219 303.195312 231.511719 286.792969 206.363281 Z M 108.710938 231.777344 C 103.683594 230.851562 97.730469 233.101562 96.539062 238.660156 C 95.480469 243.558594 97.996094 249.910156 103.550781 250.839844 C 104.214844 250.96875 104.875 251.101562 105.535156 251.234375 C 105.800781 251.367188 106.199219 251.367188 106.328125 251.5 C 106.726562 251.765625 107.257812 251.898438 107.652344 252.160156 C 108.050781 252.425781 109.371094 253.617188 107.917969 252.292969 C 108.316406 252.691406 108.710938 252.957031 109.109375 253.351562 C 109.109375 253.351562 109.636719 253.882812 109.902344 254.28125 C 110.167969 254.675781 110.429688 255.074219 110.5625 255.207031 C 110.960938 255.867188 111.359375 256.664062 111.621094 257.457031 C 113.605469 262.222656 121.148438 263.679688 125.25 261.03125 C 130.277344 257.855469 130.9375 252.558594 128.820312 247.398438 C 125.25 239.585938 117.179688 233.234375 108.710938 231.777344 Z M 108.710938 231.777344 " fill-opacity="1" fill-rule="nonzero"/></svg>