<svg xmlns="http://www.w3.org/2000/svg" xmlns:xlink="http://www.w3.org/1999/xlink" width="500" zoomAndPan="magnify" viewBox="0 0 375 374.999991" height="500" preserveAspectRatio="xMidYMid meet" version="1.0"><defs><clipPath id="099fd43860"><path d="M 47 0 L 327.953125 0 L 327.953125 375 L 47 375 Z M 47 0 " clip-rule="nonzero"/></clipPath></defs><path fill="#472d2d" d="M 325.132812 224.429688 C 324.460938 208.015625 315.324219 193.21875 301.75 185.816406 C 294.496094 181.78125 289.792969 174.246094 289.792969 165.90625 L 289.792969 48.183594 C 289.792969 27.464844 273.261719 7.554688 252.570312 4.730469 C 251.628906 4.59375 250.554688 4.324219 249.613281 4.054688 C 245.714844 2.84375 241.820312 2.308594 237.789062 2.710938 C 223.273438 4.324219 212.523438 8.765625 202.582031 19.394531 C 198.820312 23.429688 195.191406 27.601562 191.695312 31.769531 C 179.871094 45.761719 168.449219 60.023438 157.027344 74.285156 C 131.09375 106.710938 105.425781 139.402344 79.894531 172.09375 C 74.117188 179.628906 68.203125 187.027344 62.425781 194.5625 C 57.722656 200.617188 53.289062 206.402344 51.140625 213.800781 C 48.453125 223.355469 49.527344 233.308594 53.289062 242.324219 C 60.007812 258.199219 75.730469 269.230469 93.199219 269.230469 C 122.089844 269.097656 150.847656 268.964844 179.738281 268.828125 C 192.234375 268.828125 202.3125 278.785156 202.3125 291.296875 L 202.3125 328.96875 C 202.3125 351.839844 222.46875 373.769531 245.984375 372.691406 C 269.636719 371.617188 289.65625 353.453125 289.65625 328.96875 L 289.65625 282.6875 C 289.65625 274.34375 294.359375 266.8125 301.75 262.773438 C 315.726562 255.375 325.9375 240.84375 325.132812 224.429688 Z M 197.878906 198.332031 C 186.992188 198.332031 178.125 185.550781 178.125 169.671875 C 178.125 153.796875 186.992188 141.015625 197.878906 141.015625 C 208.761719 141.015625 217.632812 153.796875 217.632812 169.671875 C 217.632812 185.414062 208.761719 198.332031 197.878906 198.332031 Z M 197.878906 198.332031 " fill-opacity="1" fill-rule="nonzero"/><g clip-path="url(#099fd43860)"><path fill="#ffffff" d="M 197.878906 138.863281 C 185.917969 138.863281 176.109375 152.585938 176.109375 169.539062 C 176.109375 186.492188 185.917969 200.214844 197.878906 200.214844 C 209.835938 200.214844 219.648438 186.492188 219.648438 169.539062 C 219.648438 152.585938 209.835938 138.863281 197.878906 138.863281 Z M 197.878906 196.3125 C 188.070312 196.3125 180.140625 184.339844 180.140625 169.671875 C 180.140625 155.007812 188.070312 143.035156 197.878906 143.035156 C 207.6875 143.035156 215.617188 155.007812 215.617188 169.671875 C 215.617188 184.339844 207.6875 196.3125 197.878906 196.3125 Z M 327.148438 224.429688 C 326.34375 207.34375 316.9375 191.871094 302.691406 184.070312 C 295.972656 180.4375 291.808594 173.441406 291.808594 166.042969 L 291.808594 48.183594 C 291.808594 25.984375 274.339844 5.671875 252.972656 2.710938 C 252.03125 2.578125 251.226562 2.441406 250.417969 2.171875 C 245.984375 0.828125 241.820312 0.289062 237.789062 0.828125 C 222.066406 2.578125 211.179688 7.6875 201.371094 18.046875 C 197.609375 21.949219 193.980469 26.253906 190.621094 30.292969 L 190.488281 30.558594 C 179.066406 44.015625 168.046875 57.738281 155.683594 73.074219 C 127.734375 107.785156 100.859375 141.957031 78.417969 170.882812 L 73.714844 176.9375 C 69.414062 182.453125 65.25 187.835938 60.949219 193.351562 L 60.8125 193.488281 C 55.976562 199.675781 51.542969 205.460938 49.390625 213.265625 C 46.703125 222.949219 47.511719 233.175781 51.675781 242.996094 C 58.796875 259.816406 75.460938 271.117188 93.199219 271.117188 L 93.332031 271.117188 L 179.871094 270.710938 L 180.007812 270.710938 C 185.382812 270.710938 190.488281 272.863281 194.382812 276.632812 C 198.28125 280.535156 200.429688 285.644531 200.429688 291.164062 L 200.429688 328.96875 C 200.429688 341.210938 205.804688 353.453125 215.210938 362.46875 C 223.542969 370.40625 233.890625 374.710938 244.371094 374.710938 C 244.910156 374.710938 245.582031 374.710938 246.121094 374.710938 C 271.652344 373.5 291.671875 353.453125 291.671875 328.96875 L 291.671875 282.6875 C 291.671875 275.152344 295.839844 268.15625 302.691406 264.523438 C 318.28125 256.183594 327.953125 240.441406 327.148438 224.429688 Z M 300.945312 261.027344 C 292.882812 265.332031 287.777344 273.671875 287.777344 282.6875 L 287.777344 328.96875 C 287.777344 351.300781 269.5 369.597656 245.984375 370.675781 C 235.90625 371.078125 225.960938 367.175781 218.035156 359.507812 C 209.570312 351.4375 204.460938 340 204.460938 328.96875 L 204.460938 291.164062 C 204.460938 284.570312 201.910156 278.382812 197.207031 273.808594 C 192.636719 269.230469 186.457031 266.675781 180.007812 266.675781 L 179.871094 266.675781 L 93.332031 267.078125 L 93.199219 267.078125 C 77.074219 267.078125 61.753906 256.855469 55.304688 241.382812 C 51.542969 232.367188 50.734375 222.949219 53.15625 214.207031 C 55.035156 207.210938 59.335938 201.695312 63.90625 195.773438 L 64.039062 195.640625 C 68.339844 190.125 72.503906 184.742188 76.804688 179.226562 L 81.507812 173.171875 C 104.082031 144.246094 130.824219 110.074219 158.640625 75.496094 C 170.867188 60.292969 181.886719 46.4375 193.308594 32.980469 L 193.445312 32.714844 C 196.804688 28.675781 200.429688 24.507812 204.058594 20.605469 C 213.332031 10.917969 223.140625 6.207031 238.058594 4.59375 C 241.417969 4.191406 245.179688 4.59375 248.941406 5.804688 C 250.015625 6.074219 251.089844 6.34375 252.167969 6.476562 C 271.382812 9.035156 287.507812 28.003906 287.507812 47.914062 L 287.507812 165.636719 C 287.507812 174.652344 292.480469 182.859375 300.542969 187.296875 C 313.578125 194.429688 322.175781 208.554688 322.984375 224.296875 C 323.789062 239.09375 315.054688 253.355469 300.945312 261.027344 Z M 300.945312 261.027344 " fill-opacity="1" fill-rule="nonzero"/></g><path fill="#f2eded" d="M 249.210938 25.449219 C 266.949219 35.402344 275.546875 55.855469 271.382812 75.496094 C 268.695312 88.277344 249.34375 82.761719 251.898438 70.113281 C 254.183594 59.21875 248.539062 48.183594 238.996094 42.804688 C 227.710938 36.480469 237.921875 19.125 249.210938 25.449219 Z M 264.125 98.636719 C 251.226562 98.636719 251.089844 118.816406 264.125 118.816406 C 277.160156 118.816406 277.160156 98.636719 264.125 98.636719 Z M 247.464844 343.230469 C 241.148438 338.519531 237.25 329.773438 238.460938 321.972656 C 239.265625 316.589844 237.117188 311.074219 231.472656 309.59375 C 226.769531 308.25 219.914062 311.207031 219.109375 316.589844 C 216.421875 334.214844 223.007812 350.089844 237.386719 360.585938 C 241.820312 363.8125 248.539062 361.257812 251.226562 356.953125 C 254.183594 351.972656 251.898438 346.457031 247.464844 343.230469 Z M 247.464844 343.230469 " fill-opacity="1" fill-rule="nonzero"/></svg>